<svg width="628" height="219" viewBox="0 0 628 219" fill="none" xmlns="http://www.w3.org/2000/svg">
<g clip-path="url(#clip0_526_5136)">
<g filter="url(#filter0_di_526_5136)">
<path d="M12 25.6616C12 10.7198 25.5064 -0.589974 40.2159 2.03471L239.216 37.5433C250.664 39.586 259 49.5416 259 61.1702V190.338C259 205.28 245.494 216.59 230.784 213.965L31.7841 178.457C20.3364 176.414 12 166.458 12 154.83V25.6616Z" fill="#0B4AA8"/>
</g>
<g filter="url(#filter1_di_526_5136)">
<mask id="path-2-outside-1_526_5136" maskUnits="userSpaceOnUse" x="117" y="78" width="108" height="93" fill="black">
<rect fill="white" x="117" y="78" width="108" height="93"/>
<path d="M223.7 79.76V170H198.612V120.208L181.588 170H160.596L143.444 119.824V170H118.356V79.76H148.692L171.348 138.384L193.492 79.76H223.7Z"/>
</mask>
<path d="M223.7 79.76V170H198.612V120.208L181.588 170H160.596L143.444 119.824V170H118.356V79.76H148.692L171.348 138.384L193.492 79.76H223.7Z" fill="#FFC107"/>
<path d="M223.7 79.76H224.7V78.76H223.7V79.76ZM223.7 170V171H224.7V170H223.7ZM198.612 170H197.612V171H198.612V170ZM198.612 120.208H199.612L197.665 119.884L198.612 120.208ZM181.588 170V171H182.302L182.534 170.324L181.588 170ZM160.596 170L159.649 170.323L159.881 171H160.596V170ZM143.444 119.824L144.39 119.501L142.444 119.824H143.444ZM143.444 170V171H144.444V170H143.444ZM118.356 170H117.356V171H118.356V170ZM118.356 79.76V78.76H117.356V79.76H118.356ZM148.692 79.76L149.624 79.3995L149.377 78.76H148.692V79.76ZM171.348 138.384L170.415 138.744L171.358 141.186L172.283 138.737L171.348 138.384ZM193.492 79.76V78.76H192.8L192.556 79.4066L193.492 79.76ZM222.7 79.76V170H224.7V79.76H222.7ZM223.7 169H198.612V171H223.7V169ZM199.612 170V120.208H197.612V170H199.612ZM197.665 119.884L180.641 169.676L182.534 170.324L199.558 120.532L197.665 119.884ZM181.588 169H160.596V171H181.588V169ZM161.542 169.677L144.39 119.501L142.497 120.147L159.649 170.323L161.542 169.677ZM142.444 119.824V170H144.444V119.824H142.444ZM143.444 169H118.356V171H143.444V169ZM119.356 170V79.76H117.356V170H119.356ZM118.356 80.76H148.692V78.76H118.356V80.76ZM147.759 80.1205L170.415 138.744L172.28 138.024L149.624 79.3995L147.759 80.1205ZM172.283 138.737L194.427 80.1134L192.556 79.4066L170.412 138.031L172.283 138.737ZM193.492 80.76H223.7V78.76H193.492V80.76Z" fill="black" mask="url(#path-2-outside-1_526_5136)"/>
</g>
<g filter="url(#filter2_di_526_5136)">
<mask id="path-4-outside-2_526_5136" maskUnits="userSpaceOnUse" x="56" y="33" width="78" height="93" fill="black">
<rect fill="white" x="56" y="33" width="78" height="93"/>
<path d="M114.831 78.664C120.121 79.8587 124.303 82.504 127.375 86.6C130.532 90.6107 132.111 95.2187 132.111 100.424C132.111 108.104 129.465 114.12 124.175 118.472C118.884 122.824 111.46 125 101.903 125H57.2305V34.76H100.495C109.711 34.76 116.921 36.808 122.127 40.904C127.417 45 130.062 50.76 130.062 58.184C130.062 63.4747 128.655 67.912 125.839 71.496C123.108 74.9947 119.439 77.384 114.831 78.664ZM82.3185 70.6H94.9905C101.305 70.6 104.463 67.9973 104.463 62.792C104.463 57.416 101.305 54.728 94.9905 54.728H82.3185V70.6ZM96.9105 104.776C103.225 104.776 106.383 102.131 106.383 96.84C106.383 94.1093 105.529 92.0187 103.823 90.568C102.201 89.1173 99.8545 88.392 96.7825 88.392H82.3185V104.776H96.9105Z"/>
</mask>
<path d="M114.831 78.664C120.121 79.8587 124.303 82.504 127.375 86.6C130.532 90.6107 132.111 95.2187 132.111 100.424C132.111 108.104 129.465 114.12 124.175 118.472C118.884 122.824 111.46 125 101.903 125H57.2305V34.76H100.495C109.711 34.76 116.921 36.808 122.127 40.904C127.417 45 130.062 50.76 130.062 58.184C130.062 63.4747 128.655 67.912 125.839 71.496C123.108 74.9947 119.439 77.384 114.831 78.664ZM82.3185 70.6H94.9905C101.305 70.6 104.463 67.9973 104.463 62.792C104.463 57.416 101.305 54.728 94.9905 54.728H82.3185V70.6ZM96.9105 104.776C103.225 104.776 106.383 102.131 106.383 96.84C106.383 94.1093 105.529 92.0187 103.823 90.568C102.201 89.1173 99.8545 88.392 96.7825 88.392H82.3185V104.776H96.9105Z" fill="#FFC107"/>
<path d="M114.831 78.664L114.563 77.7005L114.61 79.6394L114.831 78.664ZM127.375 86.6L126.575 87.2L126.582 87.2094L126.589 87.2186L127.375 86.6ZM124.175 118.472L124.81 119.244L124.81 119.244L124.175 118.472ZM57.2305 125H56.2305V126H57.2305V125ZM57.2305 34.76V33.76H56.2305V34.76H57.2305ZM122.127 40.904L121.508 41.6899L121.514 41.6947L122.127 40.904ZM125.839 71.496L125.052 70.8782L125.05 70.8807L125.839 71.496ZM82.3185 70.6H81.3185V71.6H82.3185V70.6ZM82.3185 54.728V53.728H81.3185V54.728H82.3185ZM103.823 90.568L103.156 91.3132L103.165 91.3217L103.175 91.3299L103.823 90.568ZM82.3185 88.392V87.392H81.3185V88.392H82.3185ZM82.3185 104.776H81.3185V105.776H82.3185V104.776ZM114.61 79.6394C119.684 80.7852 123.654 83.3059 126.575 87.2L128.175 86C124.951 81.7021 120.558 78.9322 115.051 77.6886L114.61 79.6394ZM126.589 87.2186C129.604 91.0492 131.111 95.4382 131.111 100.424H133.111C133.111 94.9991 131.459 90.1722 128.16 85.9814L126.589 87.2186ZM131.111 100.424C131.111 107.846 128.569 113.562 123.539 117.7L124.81 119.244C130.361 114.678 133.111 108.362 133.111 100.424H131.111ZM123.539 117.7C118.487 121.856 111.319 124 101.903 124V126C111.601 126 119.281 123.792 124.81 119.244L123.539 117.7ZM101.903 124H57.2305V126H101.903V124ZM58.2305 125V34.76H56.2305V125H58.2305ZM57.2305 35.76H100.495V33.76H57.2305V35.76ZM100.495 35.76C109.573 35.76 116.537 37.7779 121.508 41.6899L122.745 40.1181C117.306 35.8381 109.848 33.76 100.495 33.76V35.76ZM121.514 41.6947C126.531 45.5788 129.062 51.0306 129.062 58.184H131.062C131.062 50.4894 128.303 44.4212 122.739 40.1133L121.514 41.6947ZM129.062 58.184C129.062 63.2882 127.708 67.4978 125.052 70.8782L126.625 72.1138C129.601 68.3262 131.062 63.6611 131.062 58.184H129.062ZM125.05 70.8807C122.462 74.1972 118.981 76.4731 114.563 77.7005L115.098 79.6275C119.896 78.2949 123.754 75.7922 126.627 72.1113L125.05 70.8807ZM82.3185 71.6H94.9905V69.6H82.3185V71.6ZM94.9905 71.6C98.2601 71.6 100.898 70.9302 102.731 69.4196C104.6 67.8786 105.463 65.6052 105.463 62.792H103.463C103.463 65.1841 102.746 66.8147 101.458 67.8764C100.134 68.9685 98.0356 69.6 94.9905 69.6V71.6ZM105.463 62.792C105.463 59.904 104.607 57.5696 102.743 55.9826C100.909 54.4218 98.2662 53.728 94.9905 53.728V55.728C98.0295 55.728 100.122 56.3782 101.446 57.5054C102.739 58.6064 103.463 60.304 103.463 62.792H105.463ZM94.9905 53.728H82.3185V55.728H94.9905V53.728ZM81.3185 54.728V70.6H83.3185V54.728H81.3185ZM96.9105 105.776C100.183 105.776 102.824 105.094 104.657 103.559C106.524 101.994 107.383 99.6905 107.383 96.84H105.383C105.383 99.2802 104.663 100.944 103.372 102.025C102.048 103.135 99.9526 103.776 96.9105 103.776V105.776ZM107.383 96.84C107.383 93.8863 106.449 91.488 104.47 89.8061L103.175 91.3299C104.609 92.5494 105.383 94.3324 105.383 96.84H107.383ZM104.489 89.8228C102.621 88.1513 99.9996 87.392 96.7825 87.392V89.392C99.7094 89.392 101.781 90.0833 103.156 91.3132L104.489 89.8228ZM96.7825 87.392H82.3185V89.392H96.7825V87.392ZM81.3185 88.392V104.776H83.3185V88.392H81.3185ZM82.3185 105.776H96.9105V103.776H82.3185V105.776Z" fill="black" mask="url(#path-4-outside-2_526_5136)"/>
</g>
<path d="M320.168 90.96C322.771 91.5147 324.861 92.816 326.44 94.864C328.019 96.8693 328.808 99.1733 328.808 101.776C328.808 105.531 327.485 108.517 324.84 110.736C322.237 112.912 318.589 114 313.896 114H292.968V69.072H313.192C317.757 69.072 321.32 70.1173 323.88 72.208C326.483 74.2987 327.784 77.136 327.784 80.72C327.784 83.3653 327.08 85.5627 325.672 87.312C324.307 89.0613 322.472 90.2773 320.168 90.96ZM303.912 87.248H311.08C312.872 87.248 314.237 86.864 315.176 86.096C316.157 85.2853 316.648 84.112 316.648 82.576C316.648 81.04 316.157 79.8667 315.176 79.056C314.237 78.2453 312.872 77.84 311.08 77.84H303.912V87.248ZM311.976 105.168C313.811 105.168 315.219 104.763 316.2 103.952C317.224 103.099 317.736 101.883 317.736 100.304C317.736 98.7253 317.203 97.488 316.136 96.592C315.112 95.696 313.683 95.248 311.848 95.248H303.912V105.168H311.976ZM345.908 69.072V95.952C345.908 98.64 346.569 100.709 347.892 102.16C349.214 103.611 351.156 104.336 353.716 104.336C356.276 104.336 358.238 103.611 359.604 102.16C360.969 100.709 361.652 98.64 361.652 95.952V69.072H372.596V95.888C372.596 99.8987 371.742 103.291 370.036 106.064C368.329 108.837 366.025 110.928 363.124 112.336C360.265 113.744 357.065 114.448 353.524 114.448C349.982 114.448 346.804 113.765 343.988 112.4C341.214 110.992 339.017 108.901 337.396 106.128C335.774 103.312 334.964 99.8987 334.964 95.888V69.072H345.908ZM391.225 105.552H405.561V114H380.281V69.072H391.225V105.552ZM421.725 105.552H436.061V114H410.781V69.072H421.725V105.552ZM458.113 69.072C462.849 69.072 466.987 70.0107 470.529 71.888C474.07 73.7653 476.801 76.4107 478.721 79.824C480.683 83.1947 481.665 87.0987 481.665 91.536C481.665 95.9307 480.683 99.8347 478.721 103.248C476.801 106.661 474.049 109.307 470.465 111.184C466.923 113.061 462.806 114 458.113 114H441.281V69.072H458.113ZM457.409 104.528C461.547 104.528 464.769 103.397 467.073 101.136C469.377 98.8747 470.529 95.6747 470.529 91.536C470.529 87.3973 469.377 84.176 467.073 81.872C464.769 79.568 461.547 78.416 457.409 78.416H452.225V104.528H457.409ZM509.029 114.448C504.805 114.448 500.922 113.467 497.381 111.504C493.882 109.541 491.087 106.811 488.997 103.312C486.948 99.7707 485.924 95.8027 485.924 91.408C485.924 87.0133 486.948 83.0667 488.997 79.568C491.087 76.0693 493.882 73.3387 497.381 71.376C500.922 69.4133 504.805 68.432 509.029 68.432C513.253 68.432 517.114 69.4133 520.613 71.376C524.154 73.3387 526.927 76.0693 528.933 79.568C530.981 83.0667 532.005 87.0133 532.005 91.408C532.005 95.8027 530.981 99.7707 528.933 103.312C526.885 106.811 524.111 109.541 520.613 111.504C517.114 113.467 513.253 114.448 509.029 114.448ZM509.029 104.464C512.613 104.464 515.471 103.269 517.604 100.88C519.781 98.4907 520.869 95.3333 520.869 91.408C520.869 87.44 519.781 84.2827 517.604 81.936C515.471 79.5467 512.613 78.352 509.029 78.352C505.402 78.352 502.501 79.5253 500.325 81.872C498.191 84.2187 497.125 87.3973 497.125 91.408C497.125 95.376 498.191 98.5547 500.325 100.944C502.501 103.291 505.402 104.464 509.029 104.464ZM567.917 83.28C567.106 81.7867 565.933 80.656 564.397 79.888C562.904 79.0773 561.133 78.672 559.085 78.672C555.544 78.672 552.706 79.8453 550.573 82.192C548.44 84.496 547.373 87.5893 547.373 91.472C547.373 95.6107 548.482 98.8533 550.701 101.2C552.962 103.504 556.056 104.656 559.981 104.656C562.669 104.656 564.93 103.973 566.765 102.608C568.642 101.243 570.008 99.28 570.861 96.72H556.973V88.656H580.781V98.832C579.97 101.563 578.584 104.101 576.621 106.448C574.701 108.795 572.248 110.693 569.261 112.144C566.274 113.595 562.904 114.32 559.149 114.32C554.712 114.32 550.744 113.36 547.245 111.44C543.789 109.477 541.08 106.768 539.117 103.312C537.197 99.856 536.237 95.9093 536.237 91.472C536.237 87.0347 537.197 83.088 539.117 79.632C541.08 76.1333 543.789 73.424 547.245 71.504C550.701 69.5413 554.648 68.56 559.085 68.56C564.461 68.56 568.984 69.8613 572.653 72.464C576.365 75.0667 578.818 78.672 580.013 83.28H567.917ZM603.099 114.448C599.814 114.448 596.87 113.915 594.267 112.848C591.664 111.781 589.574 110.203 587.995 108.112C586.459 106.021 585.648 103.504 585.563 100.56H597.211C597.382 102.224 597.958 103.504 598.939 104.4C599.92 105.253 601.2 105.68 602.779 105.68C604.4 105.68 605.68 105.317 606.619 104.592C607.558 103.824 608.027 102.779 608.027 101.456C608.027 100.347 607.643 99.4293 606.875 98.704C606.15 97.9787 605.232 97.3813 604.123 96.912C603.056 96.4427 601.52 95.9093 599.515 95.312C596.614 94.416 594.246 93.52 592.411 92.624C590.576 91.728 588.998 90.4053 587.675 88.656C586.352 86.9067 585.691 84.624 585.691 81.808C585.691 77.6267 587.206 74.3627 590.235 72.016C593.264 69.6267 597.211 68.432 602.075 68.432C607.024 68.432 611.014 69.6267 614.043 72.016C617.072 74.3627 618.694 77.648 618.907 81.872H607.067C606.982 80.4213 606.448 79.2907 605.467 78.48C604.486 77.6267 603.227 77.2 601.691 77.2C600.368 77.2 599.302 77.5627 598.491 78.288C597.68 78.9707 597.275 79.9733 597.275 81.296C597.275 82.7467 597.958 83.8773 599.323 84.688C600.688 85.4987 602.822 86.3733 605.723 87.312C608.624 88.2933 610.971 89.232 612.763 90.128C614.598 91.024 616.176 92.3253 617.499 94.032C618.822 95.7387 619.483 97.936 619.483 100.624C619.483 103.184 618.822 105.509 617.499 107.6C616.219 109.691 614.342 111.355 611.867 112.592C609.392 113.829 606.47 114.448 603.099 114.448Z" fill="black"/>
<path d="M330.136 152.304V186H321.928V165.792L314.392 186H307.768L300.184 165.744V186H291.976V152.304H301.672L311.128 175.632L320.488 152.304H330.136ZM334.407 172.56C334.407 169.808 334.919 167.392 335.943 165.312C336.999 163.232 338.423 161.632 340.215 160.512C342.007 159.392 344.007 158.832 346.215 158.832C348.103 158.832 349.751 159.216 351.159 159.984C352.599 160.752 353.703 161.76 354.471 163.008V159.216H362.679V186H354.471V182.208C353.671 183.456 352.551 184.464 351.111 185.232C349.703 186 348.055 186.384 346.167 186.384C343.991 186.384 342.007 185.824 340.215 184.704C338.423 183.552 336.999 181.936 335.943 179.856C334.919 177.744 334.407 175.312 334.407 172.56ZM354.471 172.608C354.471 170.56 353.895 168.944 352.743 167.76C351.623 166.576 350.247 165.984 348.615 165.984C346.983 165.984 345.591 166.576 344.439 167.76C343.319 168.912 342.759 170.512 342.759 172.56C342.759 174.608 343.319 176.24 344.439 177.456C345.591 178.64 346.983 179.232 348.615 179.232C350.247 179.232 351.623 178.64 352.743 177.456C353.895 176.272 354.471 174.656 354.471 172.608ZM376.825 163.68C377.785 162.208 378.985 161.056 380.425 160.224C381.865 159.36 383.465 158.928 385.225 158.928V167.616H382.969C380.921 167.616 379.385 168.064 378.361 168.96C377.337 169.824 376.825 171.36 376.825 173.568V186H368.617V159.216H376.825V163.68ZM405.516 186L397.356 174.768V186H389.148V150.48H397.356V170.112L405.468 159.216H415.596L404.46 172.656L415.692 186H405.516ZM444.068 172.176C444.068 172.944 444.02 173.744 443.924 174.576H425.348C425.476 176.24 426.004 177.52 426.932 178.416C427.892 179.28 429.06 179.712 430.436 179.712C432.484 179.712 433.908 178.848 434.708 177.12H443.444C442.996 178.88 442.18 180.464 440.996 181.872C439.844 183.28 438.388 184.384 436.628 185.184C434.868 185.984 432.9 186.384 430.724 186.384C428.1 186.384 425.764 185.824 423.716 184.704C421.668 183.584 420.068 181.984 418.916 179.904C417.764 177.824 417.188 175.392 417.188 172.608C417.188 169.824 417.748 167.392 418.868 165.312C420.02 163.232 421.62 161.632 423.668 160.512C425.716 159.392 428.068 158.832 430.724 158.832C433.316 158.832 435.62 159.376 437.636 160.464C439.652 161.552 441.22 163.104 442.34 165.12C443.492 167.136 444.068 169.488 444.068 172.176ZM435.668 170.016C435.668 168.608 435.188 167.488 434.228 166.656C433.268 165.824 432.068 165.408 430.628 165.408C429.252 165.408 428.084 165.808 427.124 166.608C426.196 167.408 425.62 168.544 425.396 170.016H435.668ZM463.326 179.04V186H459.15C456.174 186 453.854 185.28 452.19 183.84C450.526 182.368 449.694 179.984 449.694 176.688V166.032H446.43V159.216H449.694V152.688H457.902V159.216H463.278V166.032H457.902V176.784C457.902 177.584 458.094 178.16 458.478 178.512C458.862 178.864 459.502 179.04 460.398 179.04H463.326ZM476.106 163.008C476.906 161.76 478.01 160.752 479.418 159.984C480.826 159.216 482.474 158.832 484.362 158.832C486.57 158.832 488.57 159.392 490.362 160.512C492.154 161.632 493.562 163.232 494.586 165.312C495.642 167.392 496.17 169.808 496.17 172.56C496.17 175.312 495.642 177.744 494.586 179.856C493.562 181.936 492.154 183.552 490.362 184.704C488.57 185.824 486.57 186.384 484.362 186.384C482.506 186.384 480.858 186 479.418 185.232C478.01 184.464 476.906 183.472 476.106 182.256V198.768H467.898V159.216H476.106V163.008ZM487.818 172.56C487.818 170.512 487.242 168.912 486.09 167.76C484.97 166.576 483.578 165.984 481.914 165.984C480.282 165.984 478.89 166.576 477.738 167.76C476.618 168.944 476.058 170.56 476.058 172.608C476.058 174.656 476.618 176.272 477.738 177.456C478.89 178.64 480.282 179.232 481.914 179.232C483.546 179.232 484.938 178.64 486.09 177.456C487.242 176.24 487.818 174.608 487.818 172.56ZM508.684 150.48V186H500.476V150.48H508.684ZM513 172.56C513 169.808 513.512 167.392 514.536 165.312C515.592 163.232 517.016 161.632 518.808 160.512C520.6 159.392 522.6 158.832 524.808 158.832C526.696 158.832 528.344 159.216 529.752 159.984C531.192 160.752 532.296 161.76 533.064 163.008V159.216H541.272V186H533.064V182.208C532.264 183.456 531.144 184.464 529.704 185.232C528.296 186 526.648 186.384 524.76 186.384C522.584 186.384 520.6 185.824 518.808 184.704C517.016 183.552 515.592 181.936 514.536 179.856C513.512 177.744 513 175.312 513 172.56ZM533.064 172.608C533.064 170.56 532.488 168.944 531.336 167.76C530.216 166.576 528.84 165.984 527.208 165.984C525.576 165.984 524.184 166.576 523.032 167.76C521.912 168.912 521.352 170.512 521.352 172.56C521.352 174.608 521.912 176.24 523.032 177.456C524.184 178.64 525.576 179.232 527.208 179.232C528.84 179.232 530.216 178.64 531.336 177.456C532.488 176.272 533.064 174.656 533.064 172.608ZM545.578 172.608C545.578 169.824 546.138 167.392 547.258 165.312C548.41 163.232 549.994 161.632 552.01 160.512C554.058 159.392 556.394 158.832 559.018 158.832C562.378 158.832 565.178 159.712 567.418 161.472C569.69 163.232 571.178 165.712 571.882 168.912H563.146C562.41 166.864 560.986 165.84 558.874 165.84C557.37 165.84 556.17 166.432 555.274 167.616C554.378 168.768 553.93 170.432 553.93 172.608C553.93 174.784 554.378 176.464 555.274 177.648C556.17 178.8 557.37 179.376 558.874 179.376C560.986 179.376 562.41 178.352 563.146 176.304H571.882C571.178 179.44 569.69 181.904 567.418 183.696C565.146 185.488 562.346 186.384 559.018 186.384C556.394 186.384 554.058 185.824 552.01 184.704C549.994 183.584 548.41 181.984 547.258 179.904C546.138 177.824 545.578 175.392 545.578 172.608ZM601.521 172.176C601.521 172.944 601.473 173.744 601.377 174.576H582.801C582.929 176.24 583.457 177.52 584.385 178.416C585.345 179.28 586.513 179.712 587.889 179.712C589.937 179.712 591.361 178.848 592.161 177.12H600.897C600.449 178.88 599.633 180.464 598.449 181.872C597.297 183.28 595.841 184.384 594.081 185.184C592.321 185.984 590.353 186.384 588.177 186.384C585.553 186.384 583.217 185.824 581.169 184.704C579.121 183.584 577.521 181.984 576.369 179.904C575.217 177.824 574.641 175.392 574.641 172.608C574.641 169.824 575.201 167.392 576.321 165.312C577.473 163.232 579.073 161.632 581.121 160.512C583.169 159.392 585.521 158.832 588.177 158.832C590.769 158.832 593.073 159.376 595.089 160.464C597.105 161.552 598.673 163.104 599.793 165.12C600.945 167.136 601.521 169.488 601.521 172.176ZM593.121 170.016C593.121 168.608 592.641 167.488 591.681 166.656C590.721 165.824 589.521 165.408 588.081 165.408C586.705 165.408 585.537 165.808 584.577 166.608C583.649 167.408 583.073 168.544 582.849 170.016H593.121Z" fill="#535353"/>
</g>
<defs>
<filter id="filter0_di_526_5136" x="8" y="1.65485" width="255" height="220.69" filterUnits="userSpaceOnUse" color-interpolation-filters="sRGB">
<feFlood flood-opacity="0" result="BackgroundImageFix"/>
<feColorMatrix in="SourceAlpha" type="matrix" values="0 0 0 0 0 0 0 0 0 0 0 0 0 0 0 0 0 0 127 0" result="hardAlpha"/>
<feOffset dy="4"/>
<feGaussianBlur stdDeviation="2"/>
<feComposite in2="hardAlpha" operator="out"/>
<feColorMatrix type="matrix" values="0 0 0 0 0 0 0 0 0 0 0 0 0 0 0 0 0 0 0.25 0"/>
<feBlend mode="normal" in2="BackgroundImageFix" result="effect1_dropShadow_526_5136"/>
<feBlend mode="normal" in="SourceGraphic" in2="effect1_dropShadow_526_5136" result="shape"/>
<feColorMatrix in="SourceAlpha" type="matrix" values="0 0 0 0 0 0 0 0 0 0 0 0 0 0 0 0 0 0 127 0" result="hardAlpha"/>
<feOffset dy="4"/>
<feGaussianBlur stdDeviation="2"/>
<feComposite in2="hardAlpha" operator="arithmetic" k2="-1" k3="1"/>
<feColorMatrix type="matrix" values="0 0 0 0 0 0 0 0 0 0 0 0 0 0 0 0 0 0 0.25 0"/>
<feBlend mode="normal" in2="shape" result="effect2_innerShadow_526_5136"/>
</filter>
<filter id="filter1_di_526_5136" x="113.355" y="78.76" width="115.344" height="100.24" filterUnits="userSpaceOnUse" color-interpolation-filters="sRGB">
<feFlood flood-opacity="0" result="BackgroundImageFix"/>
<feColorMatrix in="SourceAlpha" type="matrix" values="0 0 0 0 0 0 0 0 0 0 0 0 0 0 0 0 0 0 127 0" result="hardAlpha"/>
<feOffset dy="4"/>
<feGaussianBlur stdDeviation="2"/>
<feComposite in2="hardAlpha" operator="out"/>
<feColorMatrix type="matrix" values="0 0 0 0 0 0 0 0 0 0 0 0 0 0 0 0 0 0 0.25 0"/>
<feBlend mode="normal" in2="BackgroundImageFix" result="effect1_dropShadow_526_5136"/>
<feBlend mode="normal" in="SourceGraphic" in2="effect1_dropShadow_526_5136" result="shape"/>
<feColorMatrix in="SourceAlpha" type="matrix" values="0 0 0 0 0 0 0 0 0 0 0 0 0 0 0 0 0 0 127 0" result="hardAlpha"/>
<feOffset dy="4"/>
<feGaussianBlur stdDeviation="2"/>
<feComposite in2="hardAlpha" operator="arithmetic" k2="-1" k3="1"/>
<feColorMatrix type="matrix" values="0 0 0 0 0 0 0 0 0 0 0 0 0 0 0 0 0 0 0.25 0"/>
<feBlend mode="normal" in2="shape" result="effect2_innerShadow_526_5136"/>
</filter>
<filter id="filter2_di_526_5136" x="52.2305" y="33.76" width="84.88" height="100.24" filterUnits="userSpaceOnUse" color-interpolation-filters="sRGB">
<feFlood flood-opacity="0" result="BackgroundImageFix"/>
<feColorMatrix in="SourceAlpha" type="matrix" values="0 0 0 0 0 0 0 0 0 0 0 0 0 0 0 0 0 0 127 0" result="hardAlpha"/>
<feOffset dy="4"/>
<feGaussianBlur stdDeviation="2"/>
<feComposite in2="hardAlpha" operator="out"/>
<feColorMatrix type="matrix" values="0 0 0 0 0 0 0 0 0 0 0 0 0 0 0 0 0 0 0.25 0"/>
<feBlend mode="normal" in2="BackgroundImageFix" result="effect1_dropShadow_526_5136"/>
<feBlend mode="normal" in="SourceGraphic" in2="effect1_dropShadow_526_5136" result="shape"/>
<feColorMatrix in="SourceAlpha" type="matrix" values="0 0 0 0 0 0 0 0 0 0 0 0 0 0 0 0 0 0 127 0" result="hardAlpha"/>
<feOffset dy="4"/>
<feGaussianBlur stdDeviation="2"/>
<feComposite in2="hardAlpha" operator="arithmetic" k2="-1" k3="1"/>
<feColorMatrix type="matrix" values="0 0 0 0 0 0 0 0 0 0 0 0 0 0 0 0 0 0 0.25 0"/>
<feBlend mode="normal" in2="shape" result="effect2_innerShadow_526_5136"/>
</filter>
<clipPath id="clip0_526_5136">
<rect width="628" height="219" fill="white"/>
</clipPath>
</defs>
</svg>
